<?xml version="1.0" encoding="utf-8"?>
<!-- Generator: Adobe Illustrator 15.0.2, SVG Export Plug-In . SVG Version: 6.00 Build 0)  -->
<!DOCTYPE svg PUBLIC "-//W3C//DTD SVG 1.1//EN" "http://www.w3.org/Graphics/SVG/1.1/DTD/svg11.dtd">
<svg version="1.1" id="Layer_1" xmlns="http://www.w3.org/2000/svg" xmlns:xlink="http://www.w3.org/1999/xlink" x="0px" y="0px"
	 width="1000px" height="189px" viewBox="0 0 1000 189" enable-background="new 0 0 1000 189" xml:space="preserve">
<g>
	<path fill="none" d="M21.73,102.848h-0.387c0-0.273-0.019-0.455-0.056-0.543s-0.132-0.196-0.284-0.326
		c-0.152-0.129-0.549-0.422-1.189-0.879l-2.211-1.593l-1.764,1.032c-0.148,0.09-0.415,0.268-0.799,0.535
		c-0.384,0.268-0.676,0.504-0.875,0.707c-0.078,0.086-0.129,0.164-0.152,0.236s-0.035,0.293-0.035,0.66h-0.34l-0.281-1.711
		c0.102-0.148,0.234-0.287,0.398-0.416c0.234-0.184,0.638-0.441,1.212-0.773l1.708-0.984c-1.704-1.199-2.637-1.818-2.797-1.857
		H13.41c0.016-0.422,0.023-0.711,0.023-0.867s-0.008-0.393-0.023-0.709h0.357c0.012,0.245,0.026,0.399,0.044,0.462
		s0.042,0.118,0.073,0.169c0.047,0.07,0.15,0.174,0.31,0.311c0.16,0.137,0.488,0.389,0.984,0.756
		c0.496,0.368,0.954,0.706,1.376,1.016l0.589,0.438l3.205-1.984c0.417-0.258,0.694-0.449,0.831-0.574
		c0.066-0.059,0.109-0.123,0.129-0.193s0.031-0.234,0.035-0.492h0.387c-0.016,0.426-0.023,0.713-0.023,0.861
		c0,0.164,0.008,0.455,0.023,0.873c-0.352,0.234-0.697,0.45-1.037,0.649l-2.631,1.54l1.055,0.742
		c1.094,0.734,1.824,1.176,2.191,1.328l0.422,0.012c-0.016,0.408-0.023,0.682-0.023,0.823
		C21.707,102.189,21.715,102.439,21.73,102.848z"/>
	<path fill="none" d="M20.821,89.845l0.422,0.188c0.168,0.27,0.28,0.467,0.335,0.592c0.082,0.184,0.151,0.394,0.208,0.63
		c0.057,0.236,0.085,0.485,0.085,0.747c0,0.516-0.107,0.982-0.322,1.4s-0.536,0.743-0.964,0.976s-0.929,0.349-1.503,0.349
		c-0.449,0-0.854-0.062-1.216-0.185s-0.628-0.263-0.8-0.419c-0.125-0.113-0.269-0.289-0.431-0.527s-0.29-0.475-0.384-0.709
		c-0.129-0.309-0.193-0.643-0.193-1.002c0-0.438,0.1-0.833,0.299-1.187s0.471-0.612,0.814-0.776s0.732-0.246,1.166-0.246
		c0.109,0,0.242,0.01,0.398,0.029c0.055,0.281,0.09,0.532,0.105,0.755c0.031,0.421,0.047,0.842,0.047,1.264v1.878
		c0.56-0.008,1.013-0.104,1.36-0.29s0.602-0.441,0.767-0.768s0.247-0.665,0.247-1.017c0-0.238-0.039-0.476-0.116-0.712
		s-0.219-0.528-0.425-0.876L20.821,89.845z M18.426,93.601c0.012-0.109,0.023-0.316,0.035-0.621c0.02-0.582,0.029-0.982,0.029-1.201
		c0-0.52-0.01-0.861-0.029-1.025c-0.094-0.004-0.166-0.006-0.217-0.006c-0.617,0-1.07,0.125-1.359,0.375s-0.434,0.584-0.434,1.002
		c0,0.441,0.158,0.797,0.475,1.066S17.742,93.597,18.426,93.601z"/>
	<path fill="none" d="M21.795,86.763l-0.815,0.246l-1.812,0.545c-0.524,0.156-1.03,0.315-1.52,0.478
		c-0.489,0.162-0.77,0.27-0.844,0.322c-0.075,0.053-0.127,0.117-0.159,0.193s-0.061,0.263-0.088,0.56h-0.334
		c0.027-0.43,0.041-0.891,0.041-1.383c0-0.523-0.014-1.012-0.041-1.465h0.334c0.004,0.363,0.018,0.6,0.041,0.709
		c0.016,0.074,0.044,0.128,0.085,0.161c0.042,0.033,0.089,0.05,0.144,0.05c0.09,0,0.331-0.057,0.722-0.17l1.888-0.544
		c0.316-0.09,0.659-0.199,1.026-0.328l-1.019-0.445l-1.927-0.862c-0.457-0.204-0.917-0.395-1.382-0.575v-0.287
		c0.714-0.258,1.187-0.433,1.417-0.527l1.698-0.673c0.57-0.23,1-0.404,1.288-0.521l-1.155-0.439
		c-0.743-0.285-1.375-0.507-1.899-0.667c-0.286-0.09-0.487-0.135-0.604-0.135c-0.109,0-0.189,0.038-0.238,0.114
		s-0.077,0.33-0.085,0.759h-0.334c0.027-0.594,0.041-1.004,0.041-1.231c0-0.274-0.014-0.646-0.041-1.115h0.334
		c0.004,0.227,0.024,0.379,0.062,0.457s0.099,0.146,0.185,0.205c0.133,0.102,0.446,0.26,0.938,0.475l1.466,0.615l0.657,0.264
		c0.129,0.051,0.526,0.201,1.19,0.451c0.282,0.109,0.528,0.191,0.739,0.246v0.551l-0.732,0.281l-3.358,1.336l1.213,0.562
		l1.471,0.662c0.34,0.152,0.629,0.275,0.867,0.369l0.539,0.193V86.763z"/>
	<path fill="none" d="M19.032,78.871c-0.876,0-1.59-0.278-2.144-0.835s-0.83-1.271-0.83-2.142c0-0.82,0.258-1.488,0.774-2.004
		s1.183-0.773,2-0.773c0.571,0,1.093,0.133,1.566,0.398s0.844,0.641,1.111,1.125c0.268,0.484,0.402,1.018,0.402,1.6
		c0,0.453-0.076,0.837-0.229,1.151c-0.153,0.314-0.344,0.569-0.575,0.765c-0.23,0.195-0.467,0.344-0.709,0.445
		C19.973,78.781,19.517,78.871,19.032,78.871z M18.598,77.763c0.481,0,0.97-0.08,1.467-0.24c0.497-0.16,0.859-0.392,1.088-0.694
		c0.229-0.303,0.343-0.632,0.343-0.987c0-0.453-0.18-0.832-0.54-1.137s-0.913-0.457-1.66-0.457c-0.622,0-1.159,0.091-1.61,0.272
		s-0.771,0.413-0.956,0.694c-0.186,0.281-0.279,0.592-0.279,0.932c0,0.48,0.174,0.87,0.522,1.169S17.863,77.763,18.598,77.763z"/>
	<path fill="none" d="M21.73,72.443h-0.334c-0.008-0.444-0.016-0.684-0.023-0.719c-0.012-0.067-0.03-0.117-0.056-0.15
		c-0.025-0.034-0.062-0.06-0.108-0.08c-0.09-0.04-0.23-0.063-0.422-0.071c-1.043-0.02-1.588-0.029-1.635-0.029h-0.697
		c-0.312,0-0.648,0.006-1.008,0.018c-0.23,0.008-0.367,0.024-0.41,0.05s-0.075,0.07-0.097,0.135s-0.03,0.319-0.026,0.765H16.58
		c-0.109-0.789-0.252-1.365-0.428-1.729c-0.039-0.078-0.059-0.131-0.059-0.158s0.01-0.049,0.029-0.064s0.049-0.023,0.088-0.023
		c0.027,0,0.059,0.002,0.094,0.006c0.238,0.02,0.607,0.031,1.107,0.035c-0.203-0.176-0.404-0.338-0.604-0.486
		s-0.328-0.256-0.387-0.322c-0.102-0.117-0.183-0.252-0.243-0.404s-0.091-0.311-0.091-0.475s0.035-0.326,0.105-0.486l0.082-0.035
		c0.52,0.059,0.977,0.092,1.371,0.1v0.264c-0.188,0.09-0.324,0.194-0.41,0.313s-0.129,0.269-0.129,0.448
		c0,0.301,0.124,0.557,0.372,0.768s0.62,0.316,1.116,0.316h0.604c0.258,0,0.729-0.01,1.412-0.029
		c0.242-0.004,0.396-0.014,0.463-0.029s0.114-0.036,0.144-0.062s0.054-0.067,0.073-0.126c0.035-0.117,0.07-0.434,0.105-0.949h0.334
		c-0.027,0.688-0.041,1.273-0.041,1.758C21.689,71.49,21.703,71.974,21.73,72.443z"/>
	<path fill="none" d="M21.73,67.679h-0.334l-0.006-0.551c-0.004-0.086-0.019-0.151-0.044-0.196s-0.058-0.079-0.097-0.103
		c-0.078-0.043-0.216-0.068-0.416-0.076c-0.051-0.004-0.611-0.018-1.68-0.041h-2.43c-0.652,0-1.325,0.01-2.02,0.029
		c-0.468,0.016-0.729,0.037-0.784,0.065c-0.039,0.02-0.066,0.051-0.082,0.094c-0.027,0.059-0.041,0.33-0.041,0.813h-0.346
		c-0.109-0.883-0.246-1.496-0.41-1.84c-0.023-0.051-0.035-0.09-0.035-0.117s0.009-0.049,0.026-0.064s0.042-0.023,0.073-0.023
		c0.027,0,0.066,0.004,0.117,0.012l0.193,0.006c0.699,0.02,1.294,0.031,1.786,0.035l0.914,0.012h3.039
		c1.015-0.016,1.563-0.026,1.646-0.029c0.195-0.004,0.337-0.027,0.427-0.071c0.035-0.016,0.065-0.039,0.091-0.071
		c0.025-0.031,0.046-0.079,0.062-0.142c0.004-0.027,0.01-0.246,0.018-0.654h0.334c-0.027,0.531-0.041,0.998-0.041,1.4
		C21.689,66.55,21.703,67.054,21.73,67.679z"/>
	<path fill="none" d="M20.821,59.306l0.422,0.188c0.168,0.27,0.28,0.467,0.335,0.592c0.082,0.184,0.151,0.394,0.208,0.63
		c0.057,0.236,0.085,0.485,0.085,0.747c0,0.516-0.107,0.982-0.322,1.4s-0.536,0.743-0.964,0.976s-0.929,0.349-1.503,0.349
		c-0.449,0-0.854-0.062-1.216-0.185s-0.628-0.263-0.8-0.419c-0.125-0.113-0.269-0.289-0.431-0.527s-0.29-0.475-0.384-0.709
		c-0.129-0.309-0.193-0.643-0.193-1.002c0-0.438,0.1-0.833,0.299-1.187s0.471-0.612,0.814-0.776s0.732-0.246,1.166-0.246
		c0.109,0,0.242,0.01,0.398,0.029c0.055,0.281,0.09,0.532,0.105,0.755c0.031,0.421,0.047,0.842,0.047,1.264v1.878
		c0.56-0.008,1.013-0.104,1.36-0.29s0.602-0.441,0.767-0.768s0.247-0.665,0.247-1.017c0-0.238-0.039-0.476-0.116-0.712
		s-0.219-0.528-0.425-0.876L20.821,59.306z M18.426,63.062c0.012-0.109,0.023-0.316,0.035-0.621c0.02-0.582,0.029-0.982,0.029-1.201
		c0-0.52-0.01-0.861-0.029-1.025c-0.094-0.004-0.166-0.006-0.217-0.006c-0.617,0-1.07,0.125-1.359,0.375s-0.434,0.584-0.434,1.002
		c0,0.441,0.158,0.797,0.475,1.066S17.742,63.058,18.426,63.062z"/>
	<path fill="none" d="M21.754,57.976c-0.492-0.047-0.802-0.072-0.931-0.076c-0.847-0.023-1.344-0.035-1.493-0.035h-2.605
		c-0.652,0-1.325,0.01-2.02,0.029c-0.469,0.016-0.73,0.037-0.785,0.065c-0.039,0.02-0.066,0.051-0.082,0.094
		c-0.027,0.059-0.041,0.33-0.041,0.813h-0.346c-0.109-0.883-0.246-1.496-0.41-1.84c-0.023-0.051-0.035-0.09-0.035-0.117
		s0.009-0.049,0.026-0.064s0.042-0.023,0.073-0.023c0.027,0,0.066,0.004,0.117,0.012l0.193,0.006
		c0.698,0.02,1.293,0.031,1.785,0.035l0.913,0.012h1.159l-0.791-0.809c-0.09-0.105-0.178-0.279-0.264-0.521s-0.129-0.5-0.129-0.773
		c0-0.43,0.101-0.811,0.302-1.143s0.485-0.587,0.853-0.765s0.773-0.267,1.219-0.267c0.344,0,0.67,0.051,0.979,0.152
		s0.584,0.232,0.826,0.393c0.184,0.117,0.309,0.217,0.375,0.299l0.615,0.855c0.258,0.348,0.423,0.619,0.495,0.814
		s0.108,0.445,0.108,0.75c0,0.262-0.035,0.504-0.105,0.727s-0.193,0.459-0.369,0.709l0.445,0.475L21.754,57.976z M17.975,56.886
		h2.197c0.195,0,0.32-0.011,0.375-0.032s0.127-0.087,0.217-0.196c0.137-0.164,0.246-0.354,0.328-0.571s0.123-0.446,0.123-0.688
		c0-0.566-0.219-1.002-0.656-1.307s-0.979-0.457-1.623-0.457c-0.457,0-0.84,0.072-1.148,0.217s-0.54,0.344-0.694,0.598
		s-0.231,0.539-0.231,0.855c0,0.371,0.106,0.703,0.319,0.996S17.658,56.789,17.975,56.886z"/>
	<path fill="none" d="M13.48,50.406c0-0.184,0.064-0.339,0.193-0.466s0.285-0.19,0.469-0.19c0.18,0,0.334,0.064,0.463,0.193
		s0.193,0.283,0.193,0.463c0,0.184-0.064,0.34-0.193,0.469s-0.283,0.193-0.463,0.193c-0.184,0-0.34-0.064-0.469-0.193
		S13.48,50.589,13.48,50.406z M16.908,51.835h-0.334c-0.086-0.758-0.25-1.395-0.492-1.91l0.094-0.129
		c0.832,0.031,1.469,0.047,1.91,0.047h1.066c1.016-0.02,1.564-0.031,1.646-0.035c0.195-0.004,0.338-0.025,0.428-0.064
		c0.035-0.02,0.065-0.045,0.091-0.076s0.046-0.078,0.062-0.141c0.004-0.023,0.01-0.24,0.018-0.65h0.334
		c-0.027,0.594-0.041,1.068-0.041,1.424c0,0.312,0.014,0.824,0.041,1.535h-0.334l-0.006-0.56c-0.004-0.083-0.019-0.146-0.044-0.192
		c-0.025-0.045-0.058-0.079-0.097-0.103c-0.078-0.043-0.217-0.071-0.416-0.083c-0.051,0-0.611-0.01-1.682-0.029h-1.031
		c-0.582,0-0.928,0.02-1.037,0.059c-0.059,0.023-0.103,0.065-0.132,0.126S16.908,51.375,16.908,51.835z"/>
</g>
<g>
	<path d="M25.46,15.047H10v124.432h15.46V15.047z"/>
	<path d="M565.987,15.047h15.378v124.432h-15.378 M555.011,115.922l-99.192-98.609V38.53l99.188,98.637L555.011,115.922z
		 M444.649,139.479h-15.46V15.047h15.46V139.479z"/>
	<path d="M691.554,67.946 M691.554,15.047v13.872h96.4V15.047 M680.569,139.479h-15.126V15.047h15.126V139.479z M691.554,81.817
		 M691.554,67.946h91.892v13.872h-91.892V67.946z M691.554,125.607h96.4v13.872h-96.4"/>
	<path d="M914.312,140.983h-17.908c-16.714,0-28.622-2.52-35.725-7.562c-7.104-5.042-10.655-13.412-10.655-25.112
		c0-1.559,0.084-4.206,0.252-7.939c0-0.612,0.027-1.086,0.083-1.42h14.875c-0.057,0.613-0.113,1.42-0.167,2.424
		c-0.112,2.396-0.168,4.039-0.168,4.93c0,7.801,2.562,13.232,7.688,16.297c5.125,3.064,14.708,4.595,28.747,4.595h12.977
		L914.312,140.983z M925.297,140.983h13.31c19.388,0,32.801-2.729,40.237-8.189c7.438-5.46,11.156-15.097,11.156-28.914
		c0-8.635-0.905-15.21-2.716-19.722c-1.811-4.513-4.86-8.022-9.15-10.53c-2.954-1.782-6.895-3.063-11.825-3.844
		c-4.93-0.779-12.271-1.169-22.02-1.169H899.58c-13.816,0-22.912-1.504-27.285-4.513c-4.374-3.009-6.559-8.524-6.559-16.546
		c0-7.91,2.241-13.342,6.726-16.295c4.484-2.953,13.189-4.43,26.116-4.43h15.734V13.543h-11.139c-20.39,0-34.417,2.578-42.076,7.73
		c-7.661,5.154-11.49,14.138-11.49,26.951c0,12.535,3.355,21.38,10.069,26.533c6.712,5.154,18.37,7.73,34.974,7.73h52.563
		c11.085,0,18.412,1.462,21.979,4.387c3.565,2.925,5.348,8.315,5.348,16.17c0,9.416-2.563,15.794-7.688,19.137
		c-5.126,3.343-16.128,5.014-33.009,5.014h-8.545 M925.298,13.543V26.83h15.731c12.703,0,21.018,1.435,24.945,4.304
		c3.928,2.87,5.892,8.399,5.892,16.589v1.921h14.875v-3.593c0-6.017-0.683-11.017-2.047-15.001
		c-1.366-3.982-3.469-7.199-6.311-9.651c-3.51-2.896-8.355-4.931-14.54-6.101c-6.184-1.169-16.994-1.754-32.425-1.754H925.298z"/>
</g>
<path d="M36.444,67.277"/>
<path d="M36.444,125.273"/>
<path d="M106.854,125.273c12.089,0,20-1.322,23.733-3.97c3.733-2.646,5.6-8.119,5.6-16.421c0-9.694-1.811-15.962-5.432-18.803
	c-3.623-2.841-11.589-4.262-23.901-4.262h-70.41v-14.54h59.798c16.657,0,26.755-1.254,30.292-3.761
	c3.538-2.507,5.307-7.604,5.307-15.293c0-4.68-0.405-8.259-1.212-10.739c-0.808-2.479-2.159-4.304-4.053-5.473
	c-2.062-1.281-4.917-2.173-8.566-2.674c-3.649-0.501-10.098-0.752-19.346-0.752h-3.928H36.444V15.047h62.388
	c11.086,0,19.317,0.417,24.694,1.253c5.376,0.835,9.652,2.256,12.828,4.262c3.844,2.396,6.573,5.488,8.189,9.276
	c1.615,3.789,2.424,9.36,2.424,16.713c0,8.636-1.492,14.806-4.471,18.51c-2.981,3.706-8.343,6.365-16.087,7.981
	c8.802,0.613,15.112,2.799,18.928,6.56c3.815,3.761,5.725,9.681,5.725,17.757v13.204c0,11.032-3.567,18.608-10.697,22.73
	c-7.132,4.124-21.951,6.185-44.458,6.185H36.445l0-14.206H106.854z"/>
<line fill="none" stroke="#000000" stroke-width="11.5623" stroke-miterlimit="10" x1="10" y1="172.685" x2="990" y2="172.685"/>
<polygon fill="none" stroke="#F99F1C" stroke-width="13.8748" stroke-miterlimit="10" points="251.911,132.648 218.812,75.32 
	251.911,17.991 318.108,17.991 351.206,75.32 318.108,132.648 "/>
</svg>
